<svg xmlns="http://www.w3.org/2000/svg" viewBox="0 0 64 64">
  <rect width="64" height="64" rx="10" fill="#b96a35"/>
  <g fill="none" stroke="#fefcf6" stroke-width="3.5" stroke-linecap="round" stroke-linejoin="round">
    <path d="M 22 42 C 21 32, 25 22, 29 16 C 31 13, 32 13, 32 17 C 32 24, 30 32, 30 42 Z"/>
    <path d="M 30 44 C 30 32, 34 18, 36 14 C 37 12, 39 12, 40 14 C 42 18, 46 32, 46 44 Z"/>
    <path d="M 44 42 C 44 32, 42 24, 42 17 C 42 13, 43 13, 45 16 C 49 22, 53 32, 52 42 Z"/>
    <ellipse cx="37" cy="43" rx="13" ry="2.5"/>
  </g>
</svg>
